<?xml version="1.0" encoding="UTF-8"?>
<!DOCTYPE svg PUBLIC "-//W3C//DTD SVG 1.1//EN" "http://www.w3.org/Graphics/SVG/1.1/DTD/svg11.dtd">
<svg xmlns="http://www.w3.org/2000/svg" version="1.1" width="32px" height="32px" style="shape-rendering:geometricPrecision; text-rendering:geometricPrecision; image-rendering:optimizeQuality; fill-rule:evenodd; clip-rule:evenodd" xmlns:xlink="http://www.w3.org/1999/xlink">
<g><path style="opacity:0.589" fill="#18aa65" d="M 13.5,-0.5 C 15.1667,-0.5 16.8333,-0.5 18.5,-0.5C 20.1809,2.77779 19.1809,4.77779 15.5,5.5C 14.8333,5.16667 14.1667,4.83333 13.5,4.5C 13.5,4.16667 13.5,3.83333 13.5,3.5C 13.5,2.16667 13.5,0.833333 13.5,-0.5 Z"/></g>
<g><path style="opacity:0.681" fill="#ffc828" d="M 13.5,4.5 C 14.1667,4.83333 14.8333,5.16667 15.5,5.5C 15.4828,7.56475 15.1495,9.56475 14.5,11.5C 13.8333,11.5 13.1667,11.5 12.5,11.5C 12.1667,11.5 11.8333,11.5 11.5,11.5C 11.5,10.8333 11.5,10.1667 11.5,9.5C 12.1098,8.60895 12.4431,7.60895 12.5,6.5C 12.8333,5.83333 13.1667,5.16667 13.5,4.5 Z"/></g>
<g><path style="opacity:0.889" fill="#f44136" d="M 13.5,3.5 C 13.5,3.83333 13.5,4.16667 13.5,4.5C 13.1667,5.16667 12.8333,5.83333 12.5,6.5C 7.97487,6.95937 7.64154,7.95937 11.5,9.5C 11.5,10.1667 11.5,10.8333 11.5,11.5C 11.5,11.8333 11.5,12.1667 11.5,12.5C 10.8333,12.5 10.1667,12.5 9.5,12.5C 6.24631,11.327 5.07965,8.99369 6,5.5C 8.13544,3.7215 10.6354,3.05484 13.5,3.5 Z"/></g>
<g><path style="opacity:0.893" fill="#2096f3" d="M 12.5,11.5 C 13.1667,11.5 13.8333,11.5 14.5,11.5C 23.9703,11.474 27.8036,16.1407 26,25.5C 24.6403,28.0226 22.807,30.0226 20.5,31.5C 17.5,31.5 14.5,31.5 11.5,31.5C 4.40635,25.9202 3.73968,19.5869 9.5,12.5C 10.1667,12.5 10.8333,12.5 11.5,12.5C 12.1667,12.5 12.5,12.1667 12.5,11.5 Z M 13.5,15.5 C 21.5204,15.3918 23.8538,18.8918 20.5,26C 13.2434,28.7463 10.0768,26.2463 11,18.5C 12.045,17.6266 12.8783,16.6266 13.5,15.5 Z"/></g>
</svg>
