<svg xmlns="http://www.w3.org/2000/svg" version="1.1" xmlns:xlink="http://www.w3.org/1999/xlink" xmlns:svgjs="http://svgjs.dev/svgjs" width="100%" height="100%" viewBox="0 0 1000 600"><rect width="1000" height="600" x="0" y="0" fill="#00214d"/><g><circle r="166.66666666666666" cx="294.8138987223307" cy="317.03614906266023" fill="#A04EF" transform="matrix(0.9754403829937113,0,0,0.9754403829937113,0,-9.249857714385783)"/><path d="M277.23602493404337 260.91052924996256L277.23602493404337 373.16178553136956L258.36165307474687 392.03615739066606L183.46718071293787 392.03615739066606L183.46718071293787 279.36279055649527L202.34155257223435 260.91052924996256L180.84406513504842 260.91052924996256L180.84406513504842 242.03615739066612L258.36165307474687 242.03615739066612L277.23602493404337 260.91052924996256ZM220.79381387876703 373.16178553136956L255.73853749685748 373.16178553136956L255.73853749685748 260.91052924996256L204.9646681501238 260.91052924996256L204.9646681501238 389.44319256654546L220.79381387876703 373.16178553136956ZM408.7837636275108 260.91052924996256L408.7837636275108 373.16178553136956L389.9093917682143 392.03615739066606L333.6782359893198 392.03615739066606L315.0149194064053 373.16178553136956L315.0149194064053 260.91052924996256L333.6782359893198 242.03615739066612L389.9093917682143 242.03615739066612L408.7837636275108 260.91052924996256ZM336.5124068435912 373.16178553136956L387.3164269440937 373.16178553136956L387.3164269440937 260.91052924996256L336.5124068435912 260.91052924996256L336.5124068435912 373.16178553136956Z " fill="#e7d045" transform="matrix(0.9754403829937113,0,0,0.9754403829937113,0,-9.249857714385783)"/><path d="M611.6046982051271 327.3236434979734L611.6046982051271 343.5861993120337L565.5967327950619 343.5861993120337L565.5967327950619 392.03614594657427L547.0740454221786 392.03614594657427L547.0740454221786 294.9544030118407L563.336601236239 279.0555465290853L544.8139138633557 279.0555465290853L544.8139138633557 262.79299071502504L611.6046982051271 262.79299071502504L611.6046982051271 279.0555465290853L565.5967327950619 279.0555465290853L565.5967327950619 341.3520462768753L579.2354577189943 327.3236434979734L611.6046982051271 327.3236434979734ZM698.7626450999709 311.24293734956564L698.7626450999709 375.77359013251396L682.681938951563 392.03614594657427L648.0785454302718 392.03614594657427L631.997839281864 375.77359013251396L631.997839281864 311.24293734956564L648.0785454302718 294.9544030118407L682.681938951563 294.9544030118407L698.7626450999709 311.24293734956564ZM650.4945481310828 375.77359013251396L680.4218073927399 375.77359013251396L680.4218073927399 311.24293734956564L650.4945481310828 311.24293734956564L650.4945481310828 375.77359013251396ZM763.8648254035412 375.77359013251396L763.8648254035412 392.03614594657427L745.5239876963103 392.03614594657427L729.4432815479024 375.77359013251396L729.4432815479024 260.3510094905496L747.9659689207857 242.03615030698325L747.9659689207857 375.77359013251396L763.8648254035412 375.77359013251396ZM799.9489947737164 260.532859156202L799.9489947737164 279.0555465290853L781.4263074008331 279.0555465290853L781.4263074008331 260.532859156202L799.9489947737164 260.532859156202ZM799.9489947737164 290.46011841785923L799.9489947737164 392.03614594657427L781.4263074008331 392.03614594657427L781.4263074008331 309.164655456395L799.9489947737164 290.46011841785923ZM897.03073770845 311.24293734956564L897.03073770845 375.77359013251396L880.9500315600422 392.03614594657427L846.3466380387509 392.03614594657427L830.2659318903433 375.77359013251396L830.2659318903433 311.24293734956564L846.3466380387509 294.9544030118407L880.9500315600422 294.9544030118407L897.03073770845 311.24293734956564ZM848.7626407395619 375.77359013251396L878.6899000012191 375.77359013251396L878.6899000012191 311.24293734956564L848.7626407395619 311.24293734956564L848.7626407395619 375.77359013251396Z " fill="#a04ef6" transform="matrix(0.9754403829937113,0,0,0.9754403829937113,0,-9.249857714385783)"/></g></svg>